<svg xmlns="http://www.w3.org/2000/svg" width="45" height="15" viewBox="0 0 45 15">
  <defs>
    <style>
      .cls-1 {
        fill: #101010;
        fill-rule: evenodd;
      }
    </style>
  </defs>
  <path id="シェイプ_2" data-name="シェイプ 2" class="cls-1" d="M678,824.148c2.256,0,3.407-1.2,4.74-2.582,1.472-1.53,3.14-3.263,6.509-3.263s5.037,1.733,6.509,3.263c1.333,1.386,2.485,2.582,4.74,2.582s3.408-1.2,4.741-2.582c1.472-1.53,3.141-3.263,6.51-3.263s5.038,1.733,6.51,3.263c1.333,1.386,2.485,2.582,4.741,2.582V825.8c-3.37,0-5.038-1.734-6.51-3.263-1.334-1.386-2.485-2.583-4.741-2.583s-3.408,1.2-4.741,2.583c-1.472,1.529-3.14,3.263-6.51,3.263s-5.037-1.734-6.509-3.263c-1.333-1.386-2.484-2.583-4.74-2.583s-3.407,1.2-4.74,2.583c-1.472,1.529-3.14,3.263-6.509,3.263m0,5.844c2.256,0,3.407-1.2,4.74-2.583,1.472-1.529,3.14-3.263,6.509-3.263s5.037,1.734,6.509,3.263c1.333,1.386,2.485,2.583,4.74,2.583s3.408-1.2,4.741-2.583c1.472-1.529,3.141-3.263,6.51-3.263s5.038,1.734,6.51,3.263c1.333,1.386,2.485,2.583,4.741,2.583V833.3c-3.37,0-5.038-1.733-6.51-3.263-1.334-1.386-2.485-2.582-4.741-2.582s-3.408,1.2-4.741,2.582c-1.472,1.53-3.14,3.263-6.51,3.263s-5.037-1.733-6.509-3.263c-1.333-1.386-2.484-2.582-4.74-2.582s-3.407,1.2-4.74,2.582c-1.472,1.53-3.14,3.263-6.509,3.263" transform="translate(-678 -818.312)"/>
</svg>
